# xmcd CD database file
#
# Track frame offsets:
#	150
#	26168
#	100160
#	157418
#	181335
#	233453
#	265953
#	292690
#	319020
#
# Disc length: 4405 seconds
#
# Revision: 0
# Processed by: cddbd v1.5.2PL0 Copyright (c) Steve Scherf et al.
# Submitted via: CDex 1.51
#
DISCID=73113309
DTITLE=Tomasz Stanko - Polish Jazz, vol8
DYEAR=1900
DGENRE=Jazz
TTITLE0=Track 01 - Czatownik (The Ambusher) (1970 Tomasz Stanko Quintet)
TTITLE1=Track 02 - Music For (1970, Tomasz Stanko Quintet)
TTITLE2=Track 03 - Dark Awekening (1976)
TTITLE3=Track 04 - Mintuu Maria (1976)
TTITLE4=Track 05 - Alusta (1982)
TTITLE5=Track 06 - Daada (1982)
TTITLE6=Track 07 - Bushka (1982)
TTITLE7=Track 08 - Lady Go (1984
TTITLE8=Track 09 - Last Song (1984)
EXTD=
EXTT0=
EXTT1=
EXTT2=
EXTT3=
EXTT4=
EXTT5=
EXTT6=
EXTT7=
EXTT8=
PLAYORDER=
